<svg width="16" height="15" viewBox="0 0 16 15" fill="none" xmlns="http://www.w3.org/2000/svg">
<path d="M14.5 14L10.8333 10.3333M12.3889 6.44444C12.3889 7.15942 12.2481 7.86739 11.9745 8.52794C11.7008 9.18849 11.2998 9.78868 10.7942 10.2942C10.2887 10.7998 9.68849 11.2008 9.02794 11.4745C8.36739 11.7481 7.65942 11.8889 6.94444 11.8889C6.22947 11.8889 5.5215 11.7481 4.86095 11.4745C4.2004 11.2008 3.6002 10.7998 3.09464 10.2942C2.58908 9.78868 2.18804 9.18849 1.91443 8.52794C1.64082 7.86739 1.5 7.15942 1.5 6.44444C1.5 5.00049 2.07361 3.61567 3.09464 2.59464C4.11567 1.57361 5.50049 1 6.94444 1C8.3884 1 9.77322 1.57361 10.7942 2.59464C11.8153 3.61567 12.3889 5.00049 12.3889 6.44444Z" stroke="#E65527" stroke-width="1.5" stroke-linecap="round" stroke-linejoin="round"/>
</svg>
